<svg xmlns="http://www.w3.org/2000/svg" viewBox="0 0 842.9 696.74"><defs><style>.cls-1{fill:#221f20;}</style></defs><title>Livello 1</title><g id="Livello_2" data-name="Livello 2"><g id="Livello_1-2" data-name="Livello 1"><polygon class="cls-1" points="80.03 419.85 80.03 696.73 0 696.73 0 339.82 80.03 419.85"/><polygon class="cls-1" points="80.03 306.71 80.03 419.85 0 339.82 0 226.69 80.03 306.71"/><polygon class="cls-1" points="392.73 619.42 346.64 619.42 346.64 686.38 80.03 419.85 80.03 306.71 351.24 577.93 392.73 619.42"/><polygon class="cls-1" points="467.5 694.19 467.5 696.73 356.99 696.73 346.64 686.38 346.64 619.42 392.73 619.42 467.5 694.19"/><polygon id="_2" data-name="2" class="cls-1" points="427.24 427.24 416.07 438.42 390.43 503.57 0 113.14 113.14 113.14 427.24 427.24"/><polygon id="_1" data-name="1" class="cls-1" points="113.14 113.14 0 113.14 0 0 113.14 113.14"/><polygon id="_3" data-name="3" class="cls-1" points="483.85 483.85 427.24 540.38 390.43 503.57 416.07 438.42 427.24 427.24 483.85 483.85"/><polygon id="_4" data-name="4" class="cls-1" points="762.87 91.61 762.87 204.75 483.85 483.85 427.24 427.24 762.87 91.61"/><polygon class="cls-1" points="842.9 11.59 842.9 124.72 762.88 204.75 762.88 91.61 842.9 11.59"/><polygon class="cls-1" points="842.9 124.72 842.9 696.74 762.88 696.74 762.88 204.75 842.9 124.72"/></g></g></svg>